#!OML:ASF E:\acrobat2\Project_11_07_03\Capture day 1\Session 1\Acrobat.ASF
:FULLY-SPECIFIED
:DEGREES
369
root 11.9162 17.2054 26.0105 -165.635 -71.0961 -186.216
lowerback 8.54863 -1.3305 2.55865
upperback 5.61713 -1.85495 -2.23892
thorax 0.883566 -0.937772 -3.61273
lowerneck 3.10779 8.46006 2.05458
upperneck -7.67924 11.1144 -4.59448
head -2.59187 5.61463 -2.14735
rclavicle -7.25564e-015 2.38542e-014
rhumerus -46.4388 -10.9729 -39.2919
rradius 28.0583
rwrist -13.311
rhand -16.421 -52.9616
rfingers 7.12502
rthumb 9.79402 -82.7138
lclavicle -7.25564e-015 2.38542e-014
lhumerus 15.7008 -36.3413 33.0252
lradius 38.8059
lwrist 12.869
lhand -27.3646 -20.7139
lfingers 7.12502
lthumb -0.772258 9.26446
rfemur -23.8812 -10.4331 -1.45852
rtibia 39.3574
rfoot -22.9073 -18.8407
rtoes -6.72584
lfemur -19.9561 1.38936 -7.76276
ltibia 41.0997
lfoot -13.0165 -24.6504
ltoes 47.6032
370
root 11.8874 17.2758 26.0793 -165.562 -69.9275 -186.434
lowerback 8.3095 -1.49325 2.05041
upperback 5.48952 -2.10576 -2.43807
thorax 0.869117 -1.07368 -3.51608
lowerneck 3.55111 8.71649 2.41662
upperneck -8.01942 11.4677 -4.78331
head -2.74303 5.78928 -2.31608
rclavicle 2.76311e-014 1.11319e-014
rhumerus -46.6328 -10.1961 -38.8092
rradius 28.7472
rwrist -13.9313
rhand -16.0178 -53.0059
rfingers 7.12502
rthumb 10.183 -82.7395
lclavicle 2.76311e-014 1.11319e-014
lhumerus 15.927 -36.9148 34.4187
lradius 38.6872
lwrist 12.9491
lhand -27.5851 -20.5528
lfingers 7.12502
lthumb -0.985203 9.42468
rfemur -23.0754 -10.3463 -1.91214
rtibia 37.3907
rfoot -21.9406 -19.1378
rtoes -6.61933
lfemur -18.8838 1.65808 -8.38238
ltibia 39.9495
lfoot -13.8255 -23.8304
ltoes 46.9299
371
root 11.8661 17.3425 26.1492 -166.181 -68.6004 -185.849
lowerback 8.09915 -1.5715 1.85385
upperback 5.36535 -2.22297 -2.61784
thorax 0.846249 -1.13534 -3.58597
lowerneck 3.64955 8.99282 2.87728
upperneck -8.04224 11.8626 -4.91162
head -2.71751 5.97777 -2.44563
rclavicle 2.28602e-014 4.53229e-014
rhumerus -46.7247 -9.29538 -38.4573
rradius 29.4561
rwrist -15.0928
rhand -15.4881 -53.1477
rfingers 7.12502
rthumb 10.694 -82.8555
lclavicle 2.28602e-014 4.53229e-014
lhumerus 16.4455 -37.6705 35.4758
lradius 38.5372
lwrist 13.6658
lhand -27.67 -20.5947
lfingers 7.12502
lthumb -1.0672 9.3824
rfemur -22.5319 -9.92532 -2.08233
rtibia 35.4316
rfoot -21.1458 -19.3027
rtoes -5.99657
lfemur -17.91 2.14345 -8.62814
ltibia 38.8794
lfoot -15.1489 -22.7133
ltoes 45.2035
372
root 11.8398 17.3995 26.2204 -166.674 -67.4903 -185.311
lowerback 7.73299 -1.7548 1.77843
upperback 5.23674 -2.4701 -2.81088
thorax 0.890126 -1.25696 -3.73362
lowerneck 3.68482 9.32519 3.31004
upperneck -7.93058 12.3458 -4.87158
head -2.64093 6.20532 -2.50649
rclavicle 1.51076e-014 -3.4191e-014
rhumerus -46.6946 -8.51199 -38.1015
rradius 30.1939
rwrist -16.3784
rhand -14.8219 -53.464
rfingers 7.12502
rthumb 11.3365 -83.1376
lclavicle 1.51076e-014 -3.4191e-014
lhumerus 16.8584 -38.1885 36.5695
lradius 38.0927
lwrist 13.6337
lhand -27.6665 -20.7948
lfingers 7.12502
lthumb -1.06385 9.18225
rfemur -22.0305 -10.2448 -2.107
rtibia 34.1731
rfoot -20.0938 -19.0747
rtoes -7.96712
lfemur -17.0894 2.47863 -8.8672
ltibia 37.7982
lfoot -15.9626 -21.8801
ltoes 44.1775
373
root 11.817 17.4504 26.2892 -166.682 -66.4028 -185.171
lowerback 7.24283 -1.9367 1.50442
upperback 5.10153 -2.72519 -2.97766
thorax 1.00349 -1.38625 -3.74771
lowerneck 3.7516 9.60048 3.49173
upperneck -8.03668 12.7345 -4.77163
head -2.6663 6.38863 -2.51919
rclavicle 1.53064e-014 -3.57812e-014
rhumerus -46.6122 -8.05292 -37.633
rradius 30.8391
rwrist -17.2403
rhand -14.3422 -53.2652
rfingers 7.12502
rthumb 11.7992 -82.9128
lclavicle 1.53064e-014 -3.57812e-014
lhumerus 17.2537 -38.3636 37.9
lradius 37.3843
lwrist 12.67
lhand -27.5495 -20.6361
lfingers 7.12502
lthumb -0.950765 9.34154
rfemur -21.6276 -10.1415 -2.34755
rtibia 32.7069
rfoot -19.175 -18.9292
rtoes -8.02129
lfemur -16.4502 2.79086 -9.28086
ltibia 36.7677
lfoot -16.5334 -21.1545
ltoes 43.5827
